<?xml version="1.0" encoding="utf-8"?>
<!-- Generator: Adobe Illustrator 26.0.3, SVG Export Plug-In . SVG Version: 6.00 Build 0)  -->
<svg version="1.1" id="Layer_1" xmlns="http://www.w3.org/2000/svg" xmlns:xlink="http://www.w3.org/1999/xlink" x="0px" y="0px"
	 viewBox="0 0 200 200" style="enable-background:new 0 0 200 200;" xml:space="preserve">
<style type="text/css">
	.st0{fill:#FFFFFF;}
</style>
<g>
	<path class="st0" d="M88.71,75.93c-10.1,6.76-14.29,16.54-14.75,28.14c-0.77,19.58,11.85,32.97,31.91,34.02
		c18.84,0.98,30.36-5.27,41.32-22.43c2.69,11-4.71,28.58-15.57,36.97c-20.79,16.09-58.92,10.52-74.25-10.85
		C43.55,122.5,48.19,97.37,68.41,84.2c6.02-3.92,12.82-6.66,19.26-9.94C88.02,74.81,88.36,75.37,88.71,75.93z"/>
	<path class="st0" d="M65.59,82.66c-13.15-2.03-18.2-18.5-8.4-29.65c8.56-9.74,19.65-11.13,31.53-8.35
		c6.29,1.48,12.39,3.77,18.6,5.62c3.02,0.9,6.06,1.8,9.15,2.4c3.97,0.77,7.97,0.49,9.99-3.59c1.92-3.88,0.84-7.42-3.49-9.92
		c13.65-0.4,22.73,8,22.08,19.85c-0.68,12.44-12.6,21.9-25.77,19.45c-10.09-1.87-19.92-5.14-29.88-7.72
		c-3.37-0.87-6.77-1.69-10.21-2.27C68.05,66.6,63.36,71.36,65.59,82.66z"/>
	<path class="st0" d="M108.14,77.71c0,14.54,0.05,28.15-0.1,41.75c-0.01,1.14-1.16,2.83-2.21,3.29c-5.87,2.61-11.88,4.92-18.76,7.71
		c0-4.48,0-8.2,0-11.92c0-9.47,0.1-18.95-0.06-28.41c-0.05-2.86,0.68-4.52,3.58-5.53C96.21,82.65,101.67,80.28,108.14,77.71z"/>
	<path class="st0" d="M124.18,91.77c5.08,4.44,9.7,8.47,14.83,12.95c-4.93,4.34-9.7,8.54-14.78,13.02
		c-4.86-4.28-9.55-8.41-14.7-12.94C114.54,100.35,119.19,96.21,124.18,91.77z"/>
</g>
</svg>
